{
    "asset" : {
        "generator" : "Khronos glTF Blender I/O v3.2.40",
        "version" : "2.0"
    },
    "scene" : 0,
    "scenes" : [
        {
            "name" : "Scene",
            "nodes" : [
                0
            ]
        }
    ],
    "nodes" : [
        {
            "mesh" : 0,
            "name" : "Arrow",
            "rotation" : [
                0,
                0,
                1,
                4.371138828673793e-08
            ],
            "scale" : [
                0.6993565559387207,
                0.046929240226745605,
                0.6993565559387207
            ],
            "translation" : [
                -80.40415954589844,
                0.006276547908782959,
                0.009467840194702148
            ]
        }
    ],
    "animations" : [
        {
            "channels" : [
                {
                    "sampler" : 0,
                    "target" : {
                        "node" : 0,
                        "path" : "translation"
                    }
                },
                {
                    "sampler" : 1,
                    "target" : {
                        "node" : 0,
                        "path" : "rotation"
                    }
                },
                {
                    "sampler" : 2,
                    "target" : {
                        "node" : 0,
                        "path" : "scale"
                    }
                }
            ],
            "name" : "ArrowAction",
            "samplers" : [
                {
                    "input" : 12,
                    "interpolation" : "LINEAR",
                    "output" : 13
                },
                {
                    "input" : 12,
                    "interpolation" : "LINEAR",
                    "output" : 14
                },
                {
                    "input" : 12,
                    "interpolation" : "LINEAR",
                    "output" : 15
                }
            ]
        }
    ],
    "materials" : [
        {
            "doubleSided" : true,
            "name" : "Material.002",
            "pbrMetallicRoughness" : {
                "baseColorFactor" : [
                    0.29295194149017334,
                    0.29295194149017334,
                    0.29295194149017334,
                    1
                ],
                "metallicFactor" : 0,
                "roughnessFactor" : 0.5
            }
        },
        {
            "doubleSided" : true,
            "name" : "Material",
            "pbrMetallicRoughness" : {
                "baseColorFactor" : [
                    0.09592285007238388,
                    0.042815014719963074,
                    0.01991865411400795,
                    1
                ],
                "metallicFactor" : 0,
                "roughnessFactor" : 0.4000000059604645
            }
        },
        {
            "doubleSided" : true,
            "name" : "Material.001",
            "pbrMetallicRoughness" : {
                "baseColorFactor" : [
                    0.21403542160987854,
                    0.0820385068655014,
                    0.019467869773507118,
                    1
                ],
                "metallicFactor" : 0,
                "roughnessFactor" : 0.5
            }
        }
    ],
    "meshes" : [
        {
            "name" : "Cube.001",
            "primitives" : [
                {
                    "attributes" : {
                        "POSITION" : 0,
                        "NORMAL" : 1,
                        "TEXCOORD_0" : 2
                    },
                    "indices" : 3,
                    "material" : 0
                },
                {
                    "attributes" : {
                        "POSITION" : 4,
                        "NORMAL" : 5,
                        "TEXCOORD_0" : 6
                    },
                    "indices" : 7,
                    "material" : 1
                },
                {
                    "attributes" : {
                        "POSITION" : 8,
                        "NORMAL" : 9,
                        "TEXCOORD_0" : 10
                    },
                    "indices" : 11,
                    "material" : 2
                }
            ]
        }
    ],
    "accessors" : [
        {
            "bufferView" : 0,
            "componentType" : 5126,
            "count" : 132,
            "max" : [
                0.9999995231628418,
                0.9999998807907104,
                1.939293622970581
            ],
            "min" : [
                -1,
                -1,
                -1.939293622970581
            ],
            "type" : "VEC3"
        },
        {
            "bufferView" : 1,
            "componentType" : 5126,
            "count" : 132,
            "type" : "VEC3"
        },
        {
            "bufferView" : 2,
            "componentType" : 5126,
            "count" : 132,
            "type" : "VEC2"
        },
        {
            "bufferView" : 3,
            "componentType" : 5123,
            "count" : 252,
            "type" : "SCALAR"
        },
        {
            "bufferView" : 4,
            "componentType" : 5126,
            "count" : 14,
            "max" : [
                -23.95083236694336,
                3.832618474960327,
                2.3153998851776123
            ],
            "min" : [
                -28.608707427978516,
                -4.1001081466674805,
                -2.342475652694702
            ],
            "type" : "VEC3"
        },
        {
            "bufferView" : 5,
            "componentType" : 5126,
            "count" : 14,
            "type" : "VEC3"
        },
        {
            "bufferView" : 6,
            "componentType" : 5126,
            "count" : 14,
            "type" : "VEC2"
        },
        {
            "bufferView" : 7,
            "componentType" : 5123,
            "count" : 18,
            "type" : "SCALAR"
        },
        {
            "bufferView" : 8,
            "componentType" : 5126,
            "count" : 192,
            "max" : [
                1.5899229049682617,
                3.2298660278320312,
                0.21217194199562073
            ],
            "min" : [
                -25.133155822753906,
                -3.4973552227020264,
                -0.23924779891967773
            ],
            "type" : "VEC3"
        },
        {
            "bufferView" : 9,
            "componentType" : 5126,
            "count" : 192,
            "type" : "VEC3"
        },
        {
            "bufferView" : 10,
            "componentType" : 5126,
            "count" : 192,
            "type" : "VEC2"
        },
        {
            "bufferView" : 11,
            "componentType" : 5123,
            "count" : 372,
            "type" : "SCALAR"
        },
        {
            "bufferView" : 12,
            "componentType" : 5126,
            "count" : 15,
            "max" : [
                0.625
            ],
            "min" : [
                0.041666666666666664
            ],
            "type" : "SCALAR"
        },
        {
            "bufferView" : 13,
            "componentType" : 5126,
            "count" : 15,
            "type" : "VEC3"
        },
        {
            "bufferView" : 14,
            "componentType" : 5126,
            "count" : 15,
            "type" : "VEC4"
        },
        {
            "bufferView" : 15,
            "componentType" : 5126,
            "count" : 15,
            "type" : "VEC3"
        }
    ],
    "bufferViews" : [
        {
            "buffer" : 0,
            "byteLength" : 1584,
            "byteOffset" : 0
        },
        {
            "buffer" : 0,
            "byteLength" : 1584,
            "byteOffset" : 1584
        },
        {
            "buffer" : 0,
            "byteLength" : 1056,
            "byteOffset" : 3168
        },
        {
            "buffer" : 0,
            "byteLength" : 504,
            "byteOffset" : 4224
        },
        {
            "buffer" : 0,
            "byteLength" : 168,
            "byteOffset" : 4728
        },
        {
            "buffer" : 0,
            "byteLength" : 168,
            "byteOffset" : 4896
        },
        {
            "buffer" : 0,
            "byteLength" : 112,
            "byteOffset" : 5064
        },
        {
            "buffer" : 0,
            "byteLength" : 36,
            "byteOffset" : 5176
        },
        {
            "buffer" : 0,
            "byteLength" : 2304,
            "byteOffset" : 5212
        },
        {
            "buffer" : 0,
            "byteLength" : 2304,
            "byteOffset" : 7516
        },
        {
            "buffer" : 0,
            "byteLength" : 1536,
            "byteOffset" : 9820
        },
        {
            "buffer" : 0,
            "byteLength" : 744,
            "byteOffset" : 11356
        },
        {
            "buffer" : 0,
            "byteLength" : 60,
            "byteOffset" : 12100
        },
        {
            "buffer" : 0,
            "byteLength" : 180,
            "byteOffset" : 12160
        },
        {
            "buffer" : 0,
            "byteLength" : 240,
            "byteOffset" : 12340
        },
        {
            "buffer" : 0,
            "byteLength" : 180,
            "byteOffset" : 12580
        }
    ],
    "buffers" : [
        {
            "byteLength" : 12760,
            "uri" : "data:application/octet-stream;base64,"
        }
    ]
}
