{
    "asset" : {
        "generator" : "Khronos glTF Blender I/O v3.2.40",
        "version" : "2.0"
    },
    "scene" : 0,
    "scenes" : [
        {
            "name" : "Scene",
            "nodes" : [
                0
            ]
        }
    ],
    "nodes" : [
        {
            "mesh" : 0,
            "name" : "Cube.001",
            "scale" : [
                0.9544468522071838,
                0.9544468522071838,
                0.9743892550468445
            ],
            "translation" : [
                15.782594680786133,
                2.023869514465332,
                -18.93899917602539
            ]
        }
    ],
    "animations" : [
        {
            "channels" : [
                {
                    "sampler" : 0,
                    "target" : {
                        "node" : 0,
                        "path" : "translation"
                    }
                },
                {
                    "sampler" : 1,
                    "target" : {
                        "node" : 0,
                        "path" : "rotation"
                    }
                },
                {
                    "sampler" : 2,
                    "target" : {
                        "node" : 0,
                        "path" : "scale"
                    }
                }
            ],
            "name" : "Cube.001Action",
            "samplers" : [
                {
                    "input" : 29,
                    "interpolation" : "LINEAR",
                    "output" : 30
                },
                {
                    "input" : 29,
                    "interpolation" : "LINEAR",
                    "output" : 31
                },
                {
                    "input" : 29,
                    "interpolation" : "LINEAR",
                    "output" : 32
                }
            ]
        }
    ],
    "materials" : [
        {
            "doubleSided" : true,
            "name" : "Material.001",
            "pbrMetallicRoughness" : {
                "baseColorFactor" : [
                    0.05512324348092079,
                    0.051194045692682266,
                    0.060450877994298935,
                    1
                ],
                "metallicFactor" : 0,
                "roughnessFactor" : 0.5
            }
        },
        {
            "doubleSided" : true,
            "name" : "Material",
            "pbrMetallicRoughness" : {
                "baseColorFactor" : [
                    0,
                    0,
                    0,
                    1
                ],
                "metallicFactor" : 0,
                "roughnessFactor" : 0.4000000059604645
            }
        },
        {
            "doubleSided" : true,
            "name" : "Material.002",
            "pbrMetallicRoughness" : {
                "baseColorFactor" : [
                    0,
                    0,
                    0,
                    1
                ],
                "metallicFactor" : 0,
                "roughnessFactor" : 0.5
            }
        },
        {
            "doubleSided" : true,
            "name" : "Material.003",
            "pbrMetallicRoughness" : {
                "baseColorFactor" : [
                    0,
                    0,
                    0,
                    1
                ],
                "metallicFactor" : 0,
                "roughnessFactor" : 0.5
            }
        },
        {
            "doubleSided" : true,
            "name" : "Material.004",
            "pbrMetallicRoughness" : {
                "baseColorFactor" : [
                    0.008668447844684124,
                    0.008668447844684124,
                    0.008668447844684124,
                    1
                ],
                "metallicFactor" : 0,
                "roughnessFactor" : 0.5
            }
        },
        {
            "doubleSided" : true,
            "name" : "Material.005",
            "pbrMetallicRoughness" : {
                "baseColorFactor" : [
                    0.006554337218403816,
                    0.006554337218403816,
                    0.006554337218403816,
                    1
                ],
                "metallicFactor" : 0,
                "roughnessFactor" : 0.5
            }
        }
    ],
    "meshes" : [
        {
            "name" : "Cube.001",
            "primitives" : [
                {
                    "attributes" : {
                        "POSITION" : 0,
                        "NORMAL" : 1,
                        "TEXCOORD_0" : 2,
                        "COLOR_0" : 3
                    },
                    "indices" : 4,
                    "material" : 0
                },
                {
                    "attributes" : {
                        "POSITION" : 5,
                        "NORMAL" : 6,
                        "TEXCOORD_0" : 7,
                        "COLOR_0" : 8
                    },
                    "indices" : 9,
                    "material" : 1
                },
                {
                    "attributes" : {
                        "POSITION" : 10,
                        "NORMAL" : 11,
                        "TEXCOORD_0" : 12,
                        "COLOR_0" : 13
                    },
                    "indices" : 14,
                    "material" : 2
                },
                {
                    "attributes" : {
                        "POSITION" : 15,
                        "NORMAL" : 16,
                        "TEXCOORD_0" : 17,
                        "COLOR_0" : 18
                    },
                    "indices" : 19,
                    "material" : 3
                },
                {
                    "attributes" : {
                        "POSITION" : 20,
                        "NORMAL" : 21,
                        "TEXCOORD_0" : 22,
                        "COLOR_0" : 23
                    },
                    "indices" : 19,
                    "material" : 4
                },
                {
                    "attributes" : {
                        "POSITION" : 24,
                        "NORMAL" : 25,
                        "TEXCOORD_0" : 26,
                        "COLOR_0" : 27
                    },
                    "indices" : 28,
                    "material" : 5
                }
            ]
        }
    ],
    "accessors" : [
        {
            "bufferView" : 0,
            "componentType" : 5126,
            "count" : 72,
            "max" : [
                1.3754067420959473,
                -0.2608983516693115,
                1
            ],
            "min" : [
                -1.018267035484314,
                -1.052477240562439,
                -1
            ],
            "type" : "VEC3"
        },
        {
            "bufferView" : 1,
            "componentType" : 5126,
            "count" : 72,
            "type" : "VEC3"
        },
        {
            "bufferView" : 2,
            "componentType" : 5126,
            "count" : 72,
            "type" : "VEC2"
        },
        {
            "bufferView" : 3,
            "componentType" : 5123,
            "count" : 72,
            "normalized" : true,
            "type" : "VEC4"
        },
        {
            "bufferView" : 4,
            "componentType" : 5123,
            "count" : 108,
            "type" : "SCALAR"
        },
        {
            "bufferView" : 5,
            "componentType" : 5126,
            "count" : 88,
            "max" : [
                2.0664288997650146,
                -0.8933336734771729,
                1.026283860206604
            ],
            "min" : [
                -2.073617458343506,
                -1.625530481338501,
                -1.027337908744812
            ],
            "type" : "VEC3"
        },
        {
            "bufferView" : 6,
            "componentType" : 5126,
            "count" : 88,
            "type" : "VEC3"
        },
        {
            "bufferView" : 7,
            "componentType" : 5126,
            "count" : 88,
            "type" : "VEC2"
        },
        {
            "bufferView" : 8,
            "componentType" : 5123,
            "count" : 88,
            "normalized" : true,
            "type" : "VEC4"
        },
        {
            "bufferView" : 9,
            "componentType" : 5123,
            "count" : 162,
            "type" : "SCALAR"
        },
        {
            "bufferView" : 10,
            "componentType" : 5126,
            "count" : 448,
            "max" : [
                1.9187257289886475,
                -1.4027584791183472,
                0.9668251872062683
            ],
            "min" : [
                1.1379661560058594,
                -2.1835179328918457,
                0.791953980922699
            ],
            "type" : "VEC3"
        },
        {
            "bufferView" : 11,
            "componentType" : 5126,
            "count" : 448,
            "type" : "VEC3"
        },
        {
            "bufferView" : 12,
            "componentType" : 5126,
            "count" : 448,
            "type" : "VEC2"
        },
        {
            "bufferView" : 13,
            "componentType" : 5123,
            "count" : 448,
            "normalized" : true,
            "type" : "VEC4"
        },
        {
            "bufferView" : 14,
            "componentType" : 5123,
            "count" : 756,
            "type" : "SCALAR"
        },
        {
            "bufferView" : 15,
            "componentType" : 5126,
            "count" : 192,
            "max" : [
                -1.0235172510147095,
                -1.4027584791183472,
                0.9668251872062683
            ],
            "min" : [
                -1.8042768239974976,
                -2.1835179328918457,
                0.791953980922699
            ],
            "type" : "VEC3"
        },
        {
            "bufferView" : 16,
            "componentType" : 5126,
            "count" : 192,
            "type" : "VEC3"
        },
        {
            "bufferView" : 17,
            "componentType" : 5126,
            "count" : 192,
            "type" : "VEC2"
        },
        {
            "bufferView" : 18,
            "componentType" : 5123,
            "count" : 192,
            "normalized" : true,
            "type" : "VEC4"
        },
        {
            "bufferView" : 19,
            "componentType" : 5123,
            "count" : 372,
            "type" : "SCALAR"
        },
        {
            "bufferView" : 20,
            "componentType" : 5126,
            "count" : 192,
            "max" : [
                -1.0550605058670044,
                -1.4027584791183472,
                -0.800804853439331
            ],
            "min" : [
                -1.8358200788497925,
                -2.1835179328918457,
                -0.9756760597229004
            ],
            "type" : "VEC3"
        },
        {
            "bufferView" : 21,
            "componentType" : 5126,
            "count" : 192,
            "type" : "VEC3"
        },
        {
            "bufferView" : 22,
            "componentType" : 5126,
            "count" : 192,
            "type" : "VEC2"
        },
        {
            "bufferView" : 23,
            "componentType" : 5123,
            "count" : 192,
            "normalized" : true,
            "type" : "VEC4"
        },
        {
            "bufferView" : 24,
            "componentType" : 5126,
            "count" : 192,
            "max" : [
                1.9187257289886475,
                -1.4027584791183472,
                -0.807294487953186
            ],
            "min" : [
                1.1379661560058594,
                -2.1835179328918457,
                -0.9821656942367554
            ],
            "type" : "VEC3"
        },
        {
            "bufferView" : 25,
            "componentType" : 5126,
            "count" : 192,
            "type" : "VEC3"
        },
        {
            "bufferView" : 26,
            "componentType" : 5126,
            "count" : 192,
            "type" : "VEC2"
        },
        {
            "bufferView" : 27,
            "componentType" : 5123,
            "count" : 192,
            "normalized" : true,
            "type" : "VEC4"
        },
        {
            "bufferView" : 28,
            "componentType" : 5123,
            "count" : 372,
            "type" : "SCALAR"
        },
        {
            "bufferView" : 29,
            "componentType" : 5126,
            "count" : 50,
            "max" : [
                2.0833333333333335
            ],
            "min" : [
                0.041666666666666664
            ],
            "type" : "SCALAR"
        },
        {
            "bufferView" : 30,
            "componentType" : 5126,
            "count" : 50,
            "type" : "VEC3"
        },
        {
            "bufferView" : 31,
            "componentType" : 5126,
            "count" : 50,
            "type" : "VEC4"
        },
        {
            "bufferView" : 32,
            "componentType" : 5126,
            "count" : 50,
            "type" : "VEC3"
        }
    ],
    "bufferViews" : [
        {
            "buffer" : 0,
            "byteLength" : 864,
            "byteOffset" : 0
        },
        {
            "buffer" : 0,
            "byteLength" : 864,
            "byteOffset" : 864
        },
        {
            "buffer" : 0,
            "byteLength" : 576,
            "byteOffset" : 1728
        },
        {
            "buffer" : 0,
            "byteLength" : 576,
            "byteOffset" : 2304
        },
        {
            "buffer" : 0,
            "byteLength" : 216,
            "byteOffset" : 2880
        },
        {
            "buffer" : 0,
            "byteLength" : 1056,
            "byteOffset" : 3096
        },
        {
            "buffer" : 0,
            "byteLength" : 1056,
            "byteOffset" : 4152
        },
        {
            "buffer" : 0,
            "byteLength" : 704,
            "byteOffset" : 5208
        },
        {
            "buffer" : 0,
            "byteLength" : 704,
            "byteOffset" : 5912
        },
        {
            "buffer" : 0,
            "byteLength" : 324,
            "byteOffset" : 6616
        },
        {
            "buffer" : 0,
            "byteLength" : 5376,
            "byteOffset" : 6940
        },
        {
            "buffer" : 0,
            "byteLength" : 5376,
            "byteOffset" : 12316
        },
        {
            "buffer" : 0,
            "byteLength" : 3584,
            "byteOffset" : 17692
        },
        {
            "buffer" : 0,
            "byteLength" : 3584,
            "byteOffset" : 21276
        },
        {
            "buffer" : 0,
            "byteLength" : 1512,
            "byteOffset" : 24860
        },
        {
            "buffer" : 0,
            "byteLength" : 2304,
            "byteOffset" : 26372
        },
        {
            "buffer" : 0,
            "byteLength" : 2304,
            "byteOffset" : 28676
        },
        {
            "buffer" : 0,
            "byteLength" : 1536,
            "byteOffset" : 30980
        },
        {
            "buffer" : 0,
            "byteLength" : 1536,
            "byteOffset" : 32516
        },
        {
            "buffer" : 0,
            "byteLength" : 744,
            "byteOffset" : 34052
        },
        {
            "buffer" : 0,
            "byteLength" : 2304,
            "byteOffset" : 34796
        },
        {
            "buffer" : 0,
            "byteLength" : 2304,
            "byteOffset" : 37100
        },
        {
            "buffer" : 0,
            "byteLength" : 1536,
            "byteOffset" : 39404
        },
        {
            "buffer" : 0,
            "byteLength" : 1536,
            "byteOffset" : 40940
        },
        {
            "buffer" : 0,
            "byteLength" : 2304,
            "byteOffset" : 42476
        },
        {
            "buffer" : 0,
            "byteLength" : 2304,
            "byteOffset" : 44780
        },
        {
            "buffer" : 0,
            "byteLength" : 1536,
            "byteOffset" : 47084
        },
        {
            "buffer" : 0,
            "byteLength" : 1536,
            "byteOffset" : 48620
        },
        {
            "buffer" : 0,
            "byteLength" : 744,
            "byteOffset" : 50156
        },
        {
            "buffer" : 0,
            "byteLength" : 200,
            "byteOffset" : 50900
        },
        {
            "buffer" : 0,
            "byteLength" : 600,
            "byteOffset" : 51100
        },
        {
            "buffer" : 0,
            "byteLength" : 800,
            "byteOffset" : 51700
        },
        {
            "buffer" : 0,
            "byteLength" : 600,
            "byteOffset" : 52500
        }
    ],
    "buffers" : [
        {
            "byteLength" : 53100,
            "uri" : "data:application/octet-stream;base64,"
        }
    ]
}
