{
    "asset" : {
        "generator" : "Khronos glTF Blender I/O v3.2.40",
        "version" : "2.0"
    },
    "scene" : 0,
    "scenes" : [
        {
            "name" : "Scene",
            "nodes" : [
                0
            ]
        }
    ],
    "nodes" : [
        {
            "mesh" : 0,
            "name" : "Cylinder",
            "translation" : [
                0,
                0.9915191531181335,
                0
            ]
        }
    ],
    "materials" : [
        {
            "doubleSided" : true,
            "name" : "Material.001",
            "pbrMetallicRoughness" : {
                "baseColorFactor" : [
                    0,
                    0,
                    0,
                    1
                ],
                "metallicFactor" : 0,
                "roughnessFactor" : 0.5
            }
        }
    ],
    "meshes" : [
        {
            "name" : "Cylinder",
            "primitives" : [
                {
                    "attributes" : {
                        "POSITION" : 0,
                        "NORMAL" : 1,
                        "TEXCOORD_0" : 2
                    },
                    "indices" : 3,
                    "material" : 0
                }
            ]
        }
    ],
    "accessors" : [
        {
            "bufferView" : 0,
            "componentType" : 5126,
            "count" : 493,
            "max" : [
                1.103186845779419,
                2.993385076522827,
                1.0876246690750122
            ],
            "min" : [
                -1.103186845779419,
                -1,
                -1.0876246690750122
            ],
            "type" : "VEC3"
        },
        {
            "bufferView" : 1,
            "componentType" : 5126,
            "count" : 493,
            "type" : "VEC3"
        },
        {
            "bufferView" : 2,
            "componentType" : 5126,
            "count" : 493,
            "type" : "VEC2"
        },
        {
            "bufferView" : 3,
            "componentType" : 5123,
            "count" : 2484,
            "type" : "SCALAR"
        }
    ],
    "bufferViews" : [
        {
            "buffer" : 0,
            "byteLength" : 5916,
            "byteOffset" : 0
        },
        {
            "buffer" : 0,
            "byteLength" : 5916,
            "byteOffset" : 5916
        },
        {
            "buffer" : 0,
            "byteLength" : 3944,
            "byteOffset" : 11832
        },
        {
            "buffer" : 0,
            "byteLength" : 4968,
            "byteOffset" : 15776
        }
    ],
    "buffers" : [
        {
            "byteLength" : 20744,
            "uri" : "data:application/octet-stream;base64,"
        }
    ]
}
