{
    "asset" : {
        "generator" : "Khronos glTF Blender I/O v3.2.40",
        "version" : "2.0"
    },
    "scene" : 0,
    "scenes" : [
        {
            "name" : "Scene",
            "nodes" : [
                0,
                3
            ]
        }
    ],
    "nodes" : [
        {
            "mesh" : 0,
            "name" : "Cube.002",
            "translation" : [
                -0.5972596406936646,
                -0.12053897976875305,
                0
            ]
        },
        {
            "mesh" : 1,
            "name" : "Cube.005"
        },
        {
            "mesh" : 2,
            "name" : "Gun_trigger",
            "translation" : [
                -0.1308179646730423,
                0.24100036919116974,
                0
            ]
        },
        {
            "children" : [
                1,
                2
            ],
            "mesh" : 3,
            "name" : "Gun"
        }
    ],
    "materials" : [
        {
            "doubleSided" : true,
            "name" : "handgun",
            "pbrMetallicRoughness" : {
                "baseColorFactor" : [
                    0.01027269009500742,
                    0.01027269009500742,
                    0.01027269009500742,
                    1
                ],
                "metallicFactor" : 0,
                "roughnessFactor" : 0.5
            }
        }
    ],
    "meshes" : [
        {
            "name" : "Cube.003",
            "primitives" : [
                {
                    "attributes" : {
                        "POSITION" : 0,
                        "NORMAL" : 1,
                        "TEXCOORD_0" : 2
                    },
                    "indices" : 3,
                    "material" : 0
                }
            ]
        },
        {
            "name" : "Cube.000",
            "primitives" : [
                {
                    "attributes" : {
                        "POSITION" : 4,
                        "NORMAL" : 5,
                        "TEXCOORD_0" : 6
                    },
                    "indices" : 7,
                    "material" : 0
                }
            ]
        },
        {
            "name" : "Cube.002",
            "primitives" : [
                {
                    "attributes" : {
                        "POSITION" : 8,
                        "NORMAL" : 9,
                        "TEXCOORD_0" : 10
                    },
                    "indices" : 11,
                    "material" : 0
                }
            ]
        },
        {
            "name" : "Cube.001",
            "primitives" : [
                {
                    "attributes" : {
                        "POSITION" : 12,
                        "NORMAL" : 13,
                        "TEXCOORD_0" : 14
                    },
                    "indices" : 15,
                    "material" : 0
                }
            ]
        }
    ],
    "accessors" : [
        {
            "bufferView" : 0,
            "componentType" : 5126,
            "count" : 100,
            "max" : [
                0.28768035769462585,
                0.5153701305389404,
                0.07410739362239838
            ],
            "min" : [
                -0.3257295489311218,
                -0.49047207832336426,
                -0.07410739362239838
            ],
            "type" : "VEC3"
        },
        {
            "bufferView" : 1,
            "componentType" : 5126,
            "count" : 100,
            "type" : "VEC3"
        },
        {
            "bufferView" : 2,
            "componentType" : 5126,
            "count" : 100,
            "type" : "VEC2"
        },
        {
            "bufferView" : 3,
            "componentType" : 5123,
            "count" : 168,
            "type" : "SCALAR"
        },
        {
            "bufferView" : 4,
            "componentType" : 5126,
            "count" : 738,
            "max" : [
                0.8573475480079651,
                0.6452512741088867,
                0.101531021296978
            ],
            "min" : [
                -0.7594957947731018,
                0.2715325951576233,
                -0.101531021296978
            ],
            "type" : "VEC3"
        },
        {
            "bufferView" : 5,
            "componentType" : 5126,
            "count" : 738,
            "type" : "VEC3"
        },
        {
            "bufferView" : 6,
            "componentType" : 5126,
            "count" : 738,
            "type" : "VEC2"
        },
        {
            "bufferView" : 7,
            "componentType" : 5123,
            "count" : 1371,
            "type" : "SCALAR"
        },
        {
            "bufferView" : 8,
            "componentType" : 5126,
            "count" : 256,
            "max" : [
                0.013585127890110016,
                0.0075545161962509155,
                0.014872955158352852
            ],
            "min" : [
                -0.13160686194896698,
                -0.20116877555847168,
                -0.01616862416267395
            ],
            "type" : "VEC3"
        },
        {
            "bufferView" : 9,
            "componentType" : 5126,
            "count" : 256,
            "type" : "VEC3"
        },
        {
            "bufferView" : 10,
            "componentType" : 5126,
            "count" : 256,
            "type" : "VEC2"
        },
        {
            "bufferView" : 11,
            "componentType" : 5123,
            "count" : 456,
            "type" : "SCALAR"
        },
        {
            "bufferView" : 12,
            "componentType" : 5126,
            "count" : 923,
            "max" : [
                0.8747486472129822,
                0.5667501091957092,
                0.12390203028917313
            ],
            "min" : [
                -0.9806819558143616,
                -0.5238857865333557,
                -0.12754587829113007
            ],
            "type" : "VEC3"
        },
        {
            "bufferView" : 13,
            "componentType" : 5126,
            "count" : 923,
            "type" : "VEC3"
        },
        {
            "bufferView" : 14,
            "componentType" : 5126,
            "count" : 923,
            "type" : "VEC2"
        },
        {
            "bufferView" : 15,
            "componentType" : 5123,
            "count" : 3663,
            "type" : "SCALAR"
        }
    ],
    "bufferViews" : [
        {
            "buffer" : 0,
            "byteLength" : 1200,
            "byteOffset" : 0
        },
        {
            "buffer" : 0,
            "byteLength" : 1200,
            "byteOffset" : 1200
        },
        {
            "buffer" : 0,
            "byteLength" : 800,
            "byteOffset" : 2400
        },
        {
            "buffer" : 0,
            "byteLength" : 336,
            "byteOffset" : 3200
        },
        {
            "buffer" : 0,
            "byteLength" : 8856,
            "byteOffset" : 3536
        },
        {
            "buffer" : 0,
            "byteLength" : 8856,
            "byteOffset" : 12392
        },
        {
            "buffer" : 0,
            "byteLength" : 5904,
            "byteOffset" : 21248
        },
        {
            "buffer" : 0,
            "byteLength" : 2742,
            "byteOffset" : 27152
        },
        {
            "buffer" : 0,
            "byteLength" : 3072,
            "byteOffset" : 29896
        },
        {
            "buffer" : 0,
            "byteLength" : 3072,
            "byteOffset" : 32968
        },
        {
            "buffer" : 0,
            "byteLength" : 2048,
            "byteOffset" : 36040
        },
        {
            "buffer" : 0,
            "byteLength" : 912,
            "byteOffset" : 38088
        },
        {
            "buffer" : 0,
            "byteLength" : 11076,
            "byteOffset" : 39000
        },
        {
            "buffer" : 0,
            "byteLength" : 11076,
            "byteOffset" : 50076
        },
        {
            "buffer" : 0,
            "byteLength" : 7384,
            "byteOffset" : 61152
        },
        {
            "buffer" : 0,
            "byteLength" : 7326,
            "byteOffset" : 68536
        }
    ],
    "buffers" : [
        {
            "byteLength" : 75864,
            "uri" : "data:application/octet-stream;base64,"
        }
    ]
}
