{
    "asset" : {
        "generator" : "Khronos glTF Blender I/O v3.2.40",
        "version" : "2.0"
    },
    "scene" : 0,
    "scenes" : [
        {
            "name" : "Game",
            "nodes" : [
                0,
                6,
                7,
                8
            ]
        }
    ],
    "nodes" : [
        {
            "mesh" : 0,
            "name" : "Cube.002",
            "translation" : [
                -0.5972596406936646,
                -0.12053897976875305,
                0
            ]
        },
        {
            "name" : "bullet shooter",
            "rotation" : [
                0,
                1,
                0,
                7.549790126404332e-08
            ],
            "translation" : [
                0.8747486472129822,
                0.49839532375335693,
                0
            ]
        },
        {
            "mesh" : 1,
            "name" : "Cube.005"
        },
        {
            "mesh" : 2,
            "name" : "Gun_trigger",
            "translation" : [
                -0.1308179646730423,
                0.24100036919116974,
                0
            ]
        },
        {
            "name" : "muni_rot",
            "rotation" : [
                0.018478892743587494,
                -0.04539294168353081,
                -0.047901853919029236,
                0.9976489543914795
            ],
            "translation" : [
                -0.2943464517593384,
                0.5182422995567322,
                0.05268475413322449
            ]
        },
        {
            "mesh" : 3,
            "name" : "muzzle fire",
            "rotation" : [
                0,
                1,
                0,
                7.549790126404332e-08
            ],
            "scale" : [
                0.00010001659393310547,
                0.00010001659393310547,
                4.559052467811853e-05
            ],
            "translation" : [
                0.8027567863464355,
                0.49839529395103455,
                0
            ]
        },
        {
            "children" : [
                1,
                2,
                3,
                4,
                5
            ],
            "mesh" : 4,
            "name" : "Gun"
        },
        {
            "mesh" : 5,
            "name" : "hulle",
            "scale" : [
                0.18400859832763672,
                0.18400859832763672,
                0.18400859832763672
            ],
            "translation" : [
                0.038121189922094345,
                0,
                -1.0094798803329468
            ]
        },
        {
            "mesh" : 6,
            "name" : "bullet",
            "rotation" : [
                0,
                -1,
                0,
                7.549790126404332e-08
            ],
            "translation" : [
                0,
                0,
                -1.2193013429641724
            ]
        }
    ],
    "animations" : [
        {
            "channels" : [
                {
                    "sampler" : 0,
                    "target" : {
                        "node" : 2,
                        "path" : "translation"
                    }
                }
            ],
            "name" : "pistol slide",
            "samplers" : [
                {
                    "input" : 27,
                    "interpolation" : "LINEAR",
                    "output" : 28
                }
            ]
        },
        {
            "channels" : [
                {
                    "sampler" : 0,
                    "target" : {
                        "node" : 3,
                        "path" : "rotation"
                    }
                }
            ],
            "name" : "Gun_trigger",
            "samplers" : [
                {
                    "input" : 27,
                    "interpolation" : "LINEAR",
                    "output" : 29
                }
            ]
        },
        {
            "channels" : [
                {
                    "sampler" : 0,
                    "target" : {
                        "node" : 4,
                        "path" : "rotation"
                    }
                }
            ],
            "name" : "muni_rot",
            "samplers" : [
                {
                    "input" : 30,
                    "interpolation" : "LINEAR",
                    "output" : 31
                }
            ]
        },
        {
            "channels" : [
                {
                    "sampler" : 0,
                    "target" : {
                        "node" : 5,
                        "path" : "scale"
                    }
                },
                {
                    "sampler" : 1,
                    "target" : {
                        "node" : 5,
                        "path" : "translation"
                    }
                }
            ],
            "name" : "muzzle fire",
            "samplers" : [
                {
                    "input" : 27,
                    "interpolation" : "LINEAR",
                    "output" : 32
                },
                {
                    "input" : 27,
                    "interpolation" : "LINEAR",
                    "output" : 33
                }
            ]
        }
    ],
    "materials" : [
        {
            "doubleSided" : true,
            "name" : "handgun",
            "pbrMetallicRoughness" : {
                "baseColorFactor" : [
                    0.800000011920929,
                    0.800000011920929,
                    0.800000011920929,
                    1
                ],
                "metallicFactor" : 0,
                "roughnessFactor" : 0.5
            }
        },
        {
            "doubleSided" : true,
            "name" : "Fire.001",
            "pbrMetallicRoughness" : {
                "baseColorFactor" : [
                    0.800000011920929,
                    0.800000011920929,
                    0.800000011920929,
                    1
                ],
                "metallicFactor" : 0,
                "roughnessFactor" : 0.5
            }
        },
        {
            "doubleSided" : true,
            "name" : "Material.004",
            "pbrMetallicRoughness" : {
                "baseColorFactor" : [
                    0.800000011920929,
                    0.800000011920929,
                    0.800000011920929,
                    1
                ],
                "metallicFactor" : 0,
                "roughnessFactor" : 0.5
            }
        },
        {
            "doubleSided" : true,
            "name" : "Material.001",
            "pbrMetallicRoughness" : {
                "baseColorFactor" : [
                    0.800000011920929,
                    0.800000011920929,
                    0.800000011920929,
                    1
                ],
                "metallicFactor" : 0,
                "roughnessFactor" : 0.5
            }
        }
    ],
    "meshes" : [
        {
            "name" : "Cube.003",
            "primitives" : [
                {
                    "attributes" : {
                        "POSITION" : 0,
                        "NORMAL" : 1,
                        "TEXCOORD_0" : 2
                    },
                    "indices" : 3,
                    "material" : 0
                }
            ]
        },
        {
            "name" : "Cube.000",
            "primitives" : [
                {
                    "attributes" : {
                        "POSITION" : 4,
                        "NORMAL" : 5,
                        "TEXCOORD_0" : 6
                    },
                    "indices" : 7,
                    "material" : 0
                }
            ]
        },
        {
            "name" : "Cube.002",
            "primitives" : [
                {
                    "attributes" : {
                        "POSITION" : 8,
                        "NORMAL" : 9,
                        "TEXCOORD_0" : 10
                    },
                    "indices" : 11,
                    "material" : 0
                }
            ]
        },
        {
            "name" : "Plane.002",
            "primitives" : [
                {
                    "attributes" : {
                        "POSITION" : 12,
                        "NORMAL" : 13,
                        "TEXCOORD_0" : 14
                    },
                    "indices" : 15,
                    "material" : 1
                }
            ]
        },
        {
            "name" : "Cube.001",
            "primitives" : [
                {
                    "attributes" : {
                        "POSITION" : 16,
                        "NORMAL" : 17,
                        "TEXCOORD_0" : 18
                    },
                    "indices" : 19,
                    "material" : 0
                }
            ]
        },
        {
            "name" : "Cube.004",
            "primitives" : [
                {
                    "attributes" : {
                        "POSITION" : 20,
                        "NORMAL" : 21
                    },
                    "indices" : 22,
                    "material" : 2
                }
            ]
        },
        {
            "name" : "Cube.005",
            "primitives" : [
                {
                    "attributes" : {
                        "POSITION" : 23,
                        "NORMAL" : 24,
                        "TEXCOORD_0" : 25
                    },
                    "indices" : 26,
                    "material" : 3
                }
            ]
        }
    ],
    "accessors" : [
        {
            "bufferView" : 0,
            "componentType" : 5126,
            "count" : 76,
            "max" : [
                0.28768035769462585,
                0.5153701305389404,
                0.07410739362239838
            ],
            "min" : [
                -0.3257295489311218,
                -0.49047207832336426,
                -0.07410739362239838
            ],
            "type" : "VEC3"
        },
        {
            "bufferView" : 1,
            "componentType" : 5126,
            "count" : 76,
            "type" : "VEC3"
        },
        {
            "bufferView" : 2,
            "componentType" : 5126,
            "count" : 76,
            "type" : "VEC2"
        },
        {
            "bufferView" : 3,
            "componentType" : 5123,
            "count" : 168,
            "type" : "SCALAR"
        },
        {
            "bufferView" : 4,
            "componentType" : 5126,
            "count" : 628,
            "max" : [
                0.8573475480079651,
                0.6452512741088867,
                0.101531021296978
            ],
            "min" : [
                -0.7594957947731018,
                0.2715325951576233,
                -0.101531021296978
            ],
            "type" : "VEC3"
        },
        {
            "bufferView" : 5,
            "componentType" : 5126,
            "count" : 628,
            "type" : "VEC3"
        },
        {
            "bufferView" : 6,
            "componentType" : 5126,
            "count" : 628,
            "type" : "VEC2"
        },
        {
            "bufferView" : 7,
            "componentType" : 5123,
            "count" : 1371,
            "type" : "SCALAR"
        },
        {
            "bufferView" : 8,
            "componentType" : 5126,
            "count" : 205,
            "max" : [
                0.013585127890110016,
                0.0075545161962509155,
                0.014872955158352852
            ],
            "min" : [
                -0.13160686194896698,
                -0.20116877555847168,
                -0.01616862416267395
            ],
            "type" : "VEC3"
        },
        {
            "bufferView" : 9,
            "componentType" : 5126,
            "count" : 205,
            "type" : "VEC3"
        },
        {
            "bufferView" : 10,
            "componentType" : 5126,
            "count" : 205,
            "type" : "VEC2"
        },
        {
            "bufferView" : 11,
            "componentType" : 5123,
            "count" : 456,
            "type" : "SCALAR"
        },
        {
            "bufferView" : 12,
            "componentType" : 5126,
            "count" : 13,
            "max" : [
                0.09947890043258667,
                0.8283010721206665,
                1.1482884883880615
            ],
            "min" : [
                -1.9005215167999268,
                -0.8075804710388184,
                -1.1482882499694824
            ],
            "type" : "VEC3"
        },
        {
            "bufferView" : 13,
            "componentType" : 5126,
            "count" : 13,
            "type" : "VEC3"
        },
        {
            "bufferView" : 14,
            "componentType" : 5126,
            "count" : 13,
            "type" : "VEC2"
        },
        {
            "bufferView" : 15,
            "componentType" : 5123,
            "count" : 24,
            "type" : "SCALAR"
        },
        {
            "bufferView" : 16,
            "componentType" : 5126,
            "count" : 893,
            "max" : [
                0.8747486472129822,
                0.5667501091957092,
                0.12390203028917313
            ],
            "min" : [
                -0.9806819558143616,
                -0.5238857865333557,
                -0.12754587829113007
            ],
            "type" : "VEC3"
        },
        {
            "bufferView" : 17,
            "componentType" : 5126,
            "count" : 893,
            "type" : "VEC3"
        },
        {
            "bufferView" : 18,
            "componentType" : 5126,
            "count" : 893,
            "type" : "VEC2"
        },
        {
            "bufferView" : 19,
            "componentType" : 5123,
            "count" : 3663,
            "type" : "SCALAR"
        },
        {
            "bufferView" : 20,
            "componentType" : 5126,
            "count" : 12,
            "max" : [
                0.41434141993522644,
                0.11936922371387482,
                0.11936928331851959
            ],
            "min" : [
                -0.622550368309021,
                -0.11936922371387482,
                -0.11936920881271362
            ],
            "type" : "VEC3"
        },
        {
            "bufferView" : 21,
            "componentType" : 5126,
            "count" : 12,
            "type" : "VEC3"
        },
        {
            "bufferView" : 22,
            "componentType" : 5123,
            "count" : 60,
            "type" : "SCALAR"
        },
        {
            "bufferView" : 23,
            "componentType" : 5126,
            "count" : 8,
            "max" : [
                1.6926164627075195,
                0.02171434462070465,
                0.021714460104703903
            ],
            "min" : [
                -7.334266185760498,
                -0.021714340895414352,
                -0.021714698523283005
            ],
            "type" : "VEC3"
        },
        {
            "bufferView" : 24,
            "componentType" : 5126,
            "count" : 8,
            "type" : "VEC3"
        },
        {
            "bufferView" : 25,
            "componentType" : 5126,
            "count" : 8,
            "type" : "VEC2"
        },
        {
            "bufferView" : 26,
            "componentType" : 5123,
            "count" : 12,
            "type" : "SCALAR"
        },
        {
            "bufferView" : 27,
            "componentType" : 5126,
            "count" : 6,
            "max" : [
                0.20833333333333334
            ],
            "min" : [
                0
            ],
            "type" : "SCALAR"
        },
        {
            "bufferView" : 28,
            "componentType" : 5126,
            "count" : 6,
            "type" : "VEC3"
        },
        {
            "bufferView" : 29,
            "componentType" : 5126,
            "count" : 6,
            "type" : "VEC4"
        },
        {
            "bufferView" : 30,
            "componentType" : 5126,
            "count" : 11,
            "max" : [
                0.4166666666666667
            ],
            "min" : [
                0
            ],
            "type" : "SCALAR"
        },
        {
            "bufferView" : 31,
            "componentType" : 5126,
            "count" : 11,
            "type" : "VEC4"
        },
        {
            "bufferView" : 32,
            "componentType" : 5126,
            "count" : 6,
            "type" : "VEC3"
        },
        {
            "bufferView" : 33,
            "componentType" : 5126,
            "count" : 6,
            "type" : "VEC3"
        }
    ],
    "bufferViews" : [
        {
            "buffer" : 0,
            "byteLength" : 912,
            "byteOffset" : 0
        },
        {
            "buffer" : 0,
            "byteLength" : 912,
            "byteOffset" : 912
        },
        {
            "buffer" : 0,
            "byteLength" : 608,
            "byteOffset" : 1824
        },
        {
            "buffer" : 0,
            "byteLength" : 336,
            "byteOffset" : 2432
        },
        {
            "buffer" : 0,
            "byteLength" : 7536,
            "byteOffset" : 2768
        },
        {
            "buffer" : 0,
            "byteLength" : 7536,
            "byteOffset" : 10304
        },
        {
            "buffer" : 0,
            "byteLength" : 5024,
            "byteOffset" : 17840
        },
        {
            "buffer" : 0,
            "byteLength" : 2742,
            "byteOffset" : 22864
        },
        {
            "buffer" : 0,
            "byteLength" : 2460,
            "byteOffset" : 25608
        },
        {
            "buffer" : 0,
            "byteLength" : 2460,
            "byteOffset" : 28068
        },
        {
            "buffer" : 0,
            "byteLength" : 1640,
            "byteOffset" : 30528
        },
        {
            "buffer" : 0,
            "byteLength" : 912,
            "byteOffset" : 32168
        },
        {
            "buffer" : 0,
            "byteLength" : 156,
            "byteOffset" : 33080
        },
        {
            "buffer" : 0,
            "byteLength" : 156,
            "byteOffset" : 33236
        },
        {
            "buffer" : 0,
            "byteLength" : 104,
            "byteOffset" : 33392
        },
        {
            "buffer" : 0,
            "byteLength" : 48,
            "byteOffset" : 33496
        },
        {
            "buffer" : 0,
            "byteLength" : 10716,
            "byteOffset" : 33544
        },
        {
            "buffer" : 0,
            "byteLength" : 10716,
            "byteOffset" : 44260
        },
        {
            "buffer" : 0,
            "byteLength" : 7144,
            "byteOffset" : 54976
        },
        {
            "buffer" : 0,
            "byteLength" : 7326,
            "byteOffset" : 62120
        },
        {
            "buffer" : 0,
            "byteLength" : 144,
            "byteOffset" : 69448
        },
        {
            "buffer" : 0,
            "byteLength" : 144,
            "byteOffset" : 69592
        },
        {
            "buffer" : 0,
            "byteLength" : 120,
            "byteOffset" : 69736
        },
        {
            "buffer" : 0,
            "byteLength" : 96,
            "byteOffset" : 69856
        },
        {
            "buffer" : 0,
            "byteLength" : 96,
            "byteOffset" : 69952
        },
        {
            "buffer" : 0,
            "byteLength" : 64,
            "byteOffset" : 70048
        },
        {
            "buffer" : 0,
            "byteLength" : 24,
            "byteOffset" : 70112
        },
        {
            "buffer" : 0,
            "byteLength" : 24,
            "byteOffset" : 70136
        },
        {
            "buffer" : 0,
            "byteLength" : 72,
            "byteOffset" : 70160
        },
        {
            "buffer" : 0,
            "byteLength" : 96,
            "byteOffset" : 70232
        },
        {
            "buffer" : 0,
            "byteLength" : 44,
            "byteOffset" : 70328
        },
        {
            "buffer" : 0,
            "byteLength" : 176,
            "byteOffset" : 70372
        },
        {
            "buffer" : 0,
            "byteLength" : 72,
            "byteOffset" : 70548
        },
        {
            "buffer" : 0,
            "byteLength" : 72,
            "byteOffset" : 70620
        }
    ],
    "buffers" : [
        {
            "byteLength" : 70692,
            "uri" : "data:application/octet-stream;base64,"
        }
    ]
}
