{
    "asset" : {
        "generator" : "Khronos glTF Blender I/O v3.2.40",
        "version" : "2.0"
    },
    "scene" : 0,
    "scenes" : [
        {
            "name" : "Scene",
            "nodes" : [
                0,
                1,
                3
            ]
        }
    ],
    "nodes" : [
        {
            "mesh" : 0,
            "name" : "Sphere.001",
            "rotation" : [
                0.09048177301883698,
                0,
                0,
                0.9958981275558472
            ],
            "scale" : [
                1.06167733669281,
                1.06167733669281,
                1.06167733669281
            ],
            "translation" : [
                0,
                3.0055978298187256,
                0.36000150442123413
            ]
        },
        {
            "mesh" : 1,
            "name" : "Sphere.002",
            "rotation" : [
                0.09480542689561844,
                -0.20287004113197327,
                0.13046428561210632,
                0.9658337235450745
            ],
            "scale" : [
                0.7569509744644165,
                0.7569509744644165,
                0.7569509744644165
            ],
            "translation" : [
                0,
                3.5969104766845703,
                0.3252698481082916
            ]
        },
        {
            "name" : "Bone",
            "rotation" : [
                -5.5938698118040975e-09,
                0.04605569317936897,
                -1.5849300538661737e-08,
                0.9989389181137085
            ],
            "scale" : [
                1,
                1.0000001192092896,
                1.0000001192092896
            ],
            "translation" : [
                -0.005345151759684086,
                -1.0756906270980835,
                0.0035787392407655716
            ]
        },
        {
            "children" : [
                2
            ],
            "name" : "Armature",
            "rotation" : [
                0.09480542689561844,
                -0.20287001132965088,
                0.13046427071094513,
                0.9658337235450745
            ],
            "scale" : [
                2.7744200229644775,
                2.7744200229644775,
                2.7744200229644775
            ],
            "translation" : [
                0,
                3.5969104766845703,
                0.32526978850364685
            ]
        }
    ],
    "animations" : [
        {
            "channels" : [
                {
                    "sampler" : 0,
                    "target" : {
                        "node" : 1,
                        "path" : "translation"
                    }
                },
                {
                    "sampler" : 1,
                    "target" : {
                        "node" : 1,
                        "path" : "rotation"
                    }
                },
                {
                    "sampler" : 2,
                    "target" : {
                        "node" : 1,
                        "path" : "scale"
                    }
                }
            ],
            "name" : "Sphere.002Action",
            "samplers" : [
                {
                    "input" : 12,
                    "interpolation" : "LINEAR",
                    "output" : 13
                },
                {
                    "input" : 12,
                    "interpolation" : "LINEAR",
                    "output" : 14
                },
                {
                    "input" : 12,
                    "interpolation" : "LINEAR",
                    "output" : 15
                }
            ]
        },
        {
            "channels" : [
                {
                    "sampler" : 0,
                    "target" : {
                        "node" : 2,
                        "path" : "translation"
                    }
                },
                {
                    "sampler" : 1,
                    "target" : {
                        "node" : 2,
                        "path" : "rotation"
                    }
                },
                {
                    "sampler" : 2,
                    "target" : {
                        "node" : 2,
                        "path" : "scale"
                    }
                },
                {
                    "sampler" : 3,
                    "target" : {
                        "node" : 3,
                        "path" : "translation"
                    }
                },
                {
                    "sampler" : 4,
                    "target" : {
                        "node" : 3,
                        "path" : "rotation"
                    }
                },
                {
                    "sampler" : 5,
                    "target" : {
                        "node" : 3,
                        "path" : "scale"
                    }
                }
            ],
            "name" : "ArmatureAction",
            "samplers" : [
                {
                    "input" : 16,
                    "interpolation" : "LINEAR",
                    "output" : 17
                },
                {
                    "input" : 16,
                    "interpolation" : "LINEAR",
                    "output" : 18
                },
                {
                    "input" : 16,
                    "interpolation" : "LINEAR",
                    "output" : 19
                },
                {
                    "input" : 16,
                    "interpolation" : "LINEAR",
                    "output" : 20
                },
                {
                    "input" : 16,
                    "interpolation" : "LINEAR",
                    "output" : 21
                },
                {
                    "input" : 16,
                    "interpolation" : "LINEAR",
                    "output" : 22
                }
            ]
        }
    ],
    "materials" : [
        {
            "doubleSided" : true,
            "name" : "Material.001",
            "pbrMetallicRoughness" : {
                "baseColorFactor" : [
                    0.7223740816116333,
                    0.259684294462204,
                    0.12499894201755524,
                    1
                ],
                "metallicFactor" : 0,
                "roughnessFactor" : 0.5
            }
        },
        {
            "doubleSided" : true,
            "name" : "Material",
            "pbrMetallicRoughness" : {
                "baseColorFactor" : [
                    0.012974094599485397,
                    0.010947102680802345,
                    0.20187018811702728,
                    1
                ],
                "metallicFactor" : 0,
                "roughnessFactor" : 0.4000000059604645
            }
        }
    ],
    "meshes" : [
        {
            "name" : "Sphere.004",
            "primitives" : [
                {
                    "attributes" : {
                        "POSITION" : 0,
                        "NORMAL" : 1,
                        "TEXCOORD_0" : 2
                    },
                    "indices" : 3,
                    "material" : 0
                }
            ]
        },
        {
            "name" : "Sphere.005",
            "primitives" : [
                {
                    "attributes" : {
                        "POSITION" : 4,
                        "NORMAL" : 5,
                        "TEXCOORD_0" : 6
                    },
                    "indices" : 7,
                    "material" : 1
                },
                {
                    "attributes" : {
                        "POSITION" : 8,
                        "NORMAL" : 9,
                        "TEXCOORD_0" : 10
                    },
                    "indices" : 11,
                    "material" : 0
                }
            ]
        }
    ],
    "skins" : [
        {
            "inverseBindMatrices" : 23,
            "joints" : [
                2
            ],
            "name" : "Armature"
        }
    ],
    "accessors" : [
        {
            "bufferView" : 0,
            "componentType" : 5126,
            "count" : 623,
            "max" : [
                0.988993227481842,
                0.8832923769950867,
                0.9889930486679077
            ],
            "min" : [
                -0.9889927506446838,
                0.11175119876861572,
                -0.9889929294586182
            ],
            "type" : "VEC3"
        },
        {
            "bufferView" : 1,
            "componentType" : 5126,
            "count" : 623,
            "type" : "VEC3"
        },
        {
            "bufferView" : 2,
            "componentType" : 5126,
            "count" : 623,
            "type" : "VEC2"
        },
        {
            "bufferView" : 3,
            "componentType" : 5123,
            "count" : 2880,
            "type" : "SCALAR"
        },
        {
            "bufferView" : 4,
            "componentType" : 5126,
            "count" : 559,
            "max" : [
                0.9999997615814209,
                0,
                0.9999992847442627
            ],
            "min" : [
                -0.9999989867210388,
                -2,
                -0.999998927116394
            ],
            "type" : "VEC3"
        },
        {
            "bufferView" : 5,
            "componentType" : 5126,
            "count" : 559,
            "type" : "VEC3"
        },
        {
            "bufferView" : 6,
            "componentType" : 5126,
            "count" : 559,
            "type" : "VEC2"
        },
        {
            "bufferView" : 7,
            "componentType" : 5123,
            "count" : 2880,
            "type" : "SCALAR"
        },
        {
            "bufferView" : 8,
            "componentType" : 5126,
            "count" : 98,
            "max" : [
                0.6050704121589661,
                -1.1754522323608398,
                0.6117300987243652
            ],
            "min" : [
                -0.5251938700675964,
                -4.204942226409912,
                -0.567284107208252
            ],
            "type" : "VEC3"
        },
        {
            "bufferView" : 9,
            "componentType" : 5126,
            "count" : 98,
            "type" : "VEC3"
        },
        {
            "bufferView" : 10,
            "componentType" : 5126,
            "count" : 98,
            "type" : "VEC2"
        },
        {
            "bufferView" : 11,
            "componentType" : 5123,
            "count" : 576,
            "type" : "SCALAR"
        },
        {
            "bufferView" : 12,
            "componentType" : 5126,
            "count" : 60,
            "max" : [
                2.5
            ],
            "min" : [
                0.041666666666666664
            ],
            "type" : "SCALAR"
        },
        {
            "bufferView" : 13,
            "componentType" : 5126,
            "count" : 60,
            "type" : "VEC3"
        },
        {
            "bufferView" : 14,
            "componentType" : 5126,
            "count" : 60,
            "type" : "VEC4"
        },
        {
            "bufferView" : 15,
            "componentType" : 5126,
            "count" : 60,
            "type" : "VEC3"
        },
        {
            "bufferView" : 16,
            "componentType" : 5126,
            "count" : 80,
            "max" : [
                3.3333333333333335
            ],
            "min" : [
                0.041666666666666664
            ],
            "type" : "SCALAR"
        },
        {
            "bufferView" : 17,
            "componentType" : 5126,
            "count" : 80,
            "type" : "VEC3"
        },
        {
            "bufferView" : 18,
            "componentType" : 5126,
            "count" : 80,
            "type" : "VEC4"
        },
        {
            "bufferView" : 19,
            "componentType" : 5126,
            "count" : 80,
            "type" : "VEC3"
        },
        {
            "bufferView" : 20,
            "componentType" : 5126,
            "count" : 80,
            "type" : "VEC3"
        },
        {
            "bufferView" : 21,
            "componentType" : 5126,
            "count" : 80,
            "type" : "VEC4"
        },
        {
            "bufferView" : 22,
            "componentType" : 5126,
            "count" : 80,
            "type" : "VEC3"
        },
        {
            "bufferView" : 23,
            "componentType" : 5126,
            "count" : 1,
            "type" : "MAT4"
        }
    ],
    "bufferViews" : [
        {
            "buffer" : 0,
            "byteLength" : 7476,
            "byteOffset" : 0
        },
        {
            "buffer" : 0,
            "byteLength" : 7476,
            "byteOffset" : 7476
        },
        {
            "buffer" : 0,
            "byteLength" : 4984,
            "byteOffset" : 14952
        },
        {
            "buffer" : 0,
            "byteLength" : 5760,
            "byteOffset" : 19936
        },
        {
            "buffer" : 0,
            "byteLength" : 6708,
            "byteOffset" : 25696
        },
        {
            "buffer" : 0,
            "byteLength" : 6708,
            "byteOffset" : 32404
        },
        {
            "buffer" : 0,
            "byteLength" : 4472,
            "byteOffset" : 39112
        },
        {
            "buffer" : 0,
            "byteLength" : 5760,
            "byteOffset" : 43584
        },
        {
            "buffer" : 0,
            "byteLength" : 1176,
            "byteOffset" : 49344
        },
        {
            "buffer" : 0,
            "byteLength" : 1176,
            "byteOffset" : 50520
        },
        {
            "buffer" : 0,
            "byteLength" : 784,
            "byteOffset" : 51696
        },
        {
            "buffer" : 0,
            "byteLength" : 1152,
            "byteOffset" : 52480
        },
        {
            "buffer" : 0,
            "byteLength" : 240,
            "byteOffset" : 53632
        },
        {
            "buffer" : 0,
            "byteLength" : 720,
            "byteOffset" : 53872
        },
        {
            "buffer" : 0,
            "byteLength" : 960,
            "byteOffset" : 54592
        },
        {
            "buffer" : 0,
            "byteLength" : 720,
            "byteOffset" : 55552
        },
        {
            "buffer" : 0,
            "byteLength" : 320,
            "byteOffset" : 56272
        },
        {
            "buffer" : 0,
            "byteLength" : 960,
            "byteOffset" : 56592
        },
        {
            "buffer" : 0,
            "byteLength" : 1280,
            "byteOffset" : 57552
        },
        {
            "buffer" : 0,
            "byteLength" : 960,
            "byteOffset" : 58832
        },
        {
            "buffer" : 0,
            "byteLength" : 960,
            "byteOffset" : 59792
        },
        {
            "buffer" : 0,
            "byteLength" : 1280,
            "byteOffset" : 60752
        },
        {
            "buffer" : 0,
            "byteLength" : 960,
            "byteOffset" : 62032
        },
        {
            "buffer" : 0,
            "byteLength" : 64,
            "byteOffset" : 62992
        }
    ],
    "buffers" : [
        {
            "byteLength" : 63056,
            "uri" : "data:application/octet-stream;base64,"
        }
    ]
}
