{
    "asset" : {
        "generator" : "Khronos glTF Blender I/O v3.2.40",
        "version" : "2.0"
    },
    "scene" : 0,
    "scenes" : [
        {
            "name" : "Scene",
            "nodes" : [
                0,
                1
            ]
        }
    ],
    "nodes" : [
        {
            "mesh" : 0,
            "name" : "Table",
            "scale" : [
                0.031064052134752274,
                0.528669536113739,
                0.03599589318037033
            ],
            "translation" : [
                -0.6370959877967834,
                0.5368155241012573,
                -1.0485867261886597
            ]
        },
        {
            "mesh" : 1,
            "name" : "Chair",
            "rotation" : [
                0,
                -0.7033767104148865,
                0,
                0.710817277431488
            ],
            "scale" : [
                0.3420417308807373,
                0.041543323546648026,
                0.3420417308807373
            ],
            "translation" : [
                -0.6138558387756348,
                0.5562646985054016,
                0.010804038494825363
            ]
        }
    ],
    "materials" : [
        {
            "doubleSided" : true,
            "name" : "Material",
            "pbrMetallicRoughness" : {
                "baseColorFactor" : [
                    0.3172932267189026,
                    0.1732841581106186,
                    0.07113272696733475,
                    1
                ],
                "metallicFactor" : 0,
                "roughnessFactor" : 0.4000000059604645
            }
        },
        {
            "doubleSided" : true,
            "name" : "Material.001",
            "pbrMetallicRoughness" : {
                "baseColorFactor" : [
                    0.8055111169815063,
                    0.4894745647907257,
                    0.27246779203414917,
                    1
                ],
                "metallicFactor" : 0,
                "roughnessFactor" : 0.5
            }
        }
    ],
    "meshes" : [
        {
            "name" : "Cube.009",
            "primitives" : [
                {
                    "attributes" : {
                        "POSITION" : 0,
                        "NORMAL" : 1,
                        "TEXCOORD_0" : 2
                    },
                    "indices" : 3,
                    "material" : 0
                }
            ]
        },
        {
            "name" : "Cube.010",
            "primitives" : [
                {
                    "attributes" : {
                        "POSITION" : 4,
                        "NORMAL" : 5,
                        "TEXCOORD_0" : 6
                    },
                    "indices" : 7,
                    "material" : 1
                }
            ]
        }
    ],
    "accessors" : [
        {
            "bufferView" : 0,
            "componentType" : 5126,
            "count" : 120,
            "max" : [
                43.18817901611328,
                1.1567620038986206,
                65.20166778564453
            ],
            "min" : [
                -2.1699600219726562,
                -1,
                -2.3076534271240234
            ],
            "type" : "VEC3"
        },
        {
            "bufferView" : 1,
            "componentType" : 5126,
            "count" : 120,
            "type" : "VEC3"
        },
        {
            "bufferView" : 2,
            "componentType" : 5126,
            "count" : 120,
            "type" : "VEC2"
        },
        {
            "bufferView" : 3,
            "componentType" : 5123,
            "count" : 180,
            "type" : "SCALAR"
        },
        {
            "bufferView" : 4,
            "componentType" : 5126,
            "count" : 144,
            "max" : [
                1.0180619955062866,
                17.386098861694336,
                1.1461905241012573
            ],
            "min" : [
                -1,
                -14.905817031860352,
                -1
            ],
            "type" : "VEC3"
        },
        {
            "bufferView" : 5,
            "componentType" : 5126,
            "count" : 144,
            "type" : "VEC3"
        },
        {
            "bufferView" : 6,
            "componentType" : 5126,
            "count" : 144,
            "type" : "VEC2"
        },
        {
            "bufferView" : 7,
            "componentType" : 5123,
            "count" : 216,
            "type" : "SCALAR"
        }
    ],
    "bufferViews" : [
        {
            "buffer" : 0,
            "byteLength" : 1440,
            "byteOffset" : 0
        },
        {
            "buffer" : 0,
            "byteLength" : 1440,
            "byteOffset" : 1440
        },
        {
            "buffer" : 0,
            "byteLength" : 960,
            "byteOffset" : 2880
        },
        {
            "buffer" : 0,
            "byteLength" : 360,
            "byteOffset" : 3840
        },
        {
            "buffer" : 0,
            "byteLength" : 1728,
            "byteOffset" : 4200
        },
        {
            "buffer" : 0,
            "byteLength" : 1728,
            "byteOffset" : 5928
        },
        {
            "buffer" : 0,
            "byteLength" : 1152,
            "byteOffset" : 7656
        },
        {
            "buffer" : 0,
            "byteLength" : 432,
            "byteOffset" : 8808
        }
    ],
    "buffers" : [
        {
            "byteLength" : 9240,
            "uri" : "data:application/octet-stream;base64,"
        }
    ]
}
