{
    "asset" : {
        "generator" : "Khronos glTF Blender I/O v3.2.40",
        "version" : "2.0"
    },
    "scene" : 0,
    "scenes" : [
        {
            "name" : "Scene",
            "nodes" : [
                0,
                1,
                2
            ]
        }
    ],
    "nodes" : [
        {
            "mesh" : 0,
            "name" : "Sphere",
            "rotation" : [
                0.004273554310202599,
                -0.02528894878923893,
                0.9996646046638489,
                0.0035999829415231943
            ],
            "scale" : [
                1.4100067615509033,
                0.9000100493431091,
                1.5000067949295044
            ],
            "translation" : [
                0.02392721176147461,
                2.249098300933838,
                0
            ]
        },
        {
            "mesh" : 1,
            "name" : "Sphere.001",
            "scale" : [
                0.1172797828912735,
                0.1172797828912735,
                0.1172797828912735
            ],
            "translation" : [
                0.038733743131160736,
                3.1407248973846436,
                0.039778150618076324
            ]
        },
        {
            "mesh" : 2,
            "name" : "Cylinder",
            "scale" : [
                -0.04097510874271393,
                -0.1818733662366867,
                -0.04097510874271393
            ],
            "translation" : [
                0.026663485914468765,
                1.229525089263916,
                -0.0035821273922920227
            ]
        }
    ],
    "materials" : [
        {
            "doubleSided" : true,
            "name" : "Material",
            "pbrMetallicRoughness" : {
                "baseColorFactor" : [
                    0.060216598212718964,
                    0.18105114996433258,
                    0.6730772256851196,
                    1
                ],
                "metallicFactor" : 0,
                "roughnessFactor" : 0.4000000059604645
            }
        },
        {
            "doubleSided" : true,
            "name" : "Material.001",
            "pbrMetallicRoughness" : {
                "baseColorFactor" : [
                    0,
                    0,
                    0,
                    1
                ],
                "metallicFactor" : 0,
                "roughnessFactor" : 0.5
            }
        }
    ],
    "meshes" : [
        {
            "name" : "Sphere",
            "primitives" : [
                {
                    "attributes" : {
                        "POSITION" : 0,
                        "NORMAL" : 1,
                        "TEXCOORD_0" : 2
                    },
                    "indices" : 3,
                    "material" : 0
                }
            ]
        },
        {
            "name" : "Sphere.001",
            "primitives" : [
                {
                    "attributes" : {
                        "POSITION" : 4,
                        "NORMAL" : 5,
                        "TEXCOORD_0" : 6
                    },
                    "indices" : 7,
                    "material" : 1
                }
            ]
        },
        {
            "name" : "Cylinder",
            "primitives" : [
                {
                    "attributes" : {
                        "POSITION" : 8,
                        "NORMAL" : 9,
                        "TEXCOORD_0" : 10
                    },
                    "indices" : 11,
                    "material" : 1
                }
            ]
        }
    ],
    "accessors" : [
        {
            "bufferView" : 0,
            "componentType" : 5126,
            "count" : 2176,
            "max" : [
                0.9999996423721313,
                0.14740881323814392,
                0.9999993443489075
            ],
            "min" : [
                -0.9999989867210388,
                -0.9999999403953552,
                -0.9999986886978149
            ],
            "type" : "VEC3"
        },
        {
            "bufferView" : 1,
            "componentType" : 5126,
            "count" : 2176,
            "type" : "VEC3"
        },
        {
            "bufferView" : 2,
            "componentType" : 5126,
            "count" : 2176,
            "type" : "VEC2"
        },
        {
            "bufferView" : 3,
            "componentType" : 5123,
            "count" : 3264,
            "type" : "SCALAR"
        },
        {
            "bufferView" : 4,
            "componentType" : 5126,
            "count" : 1984,
            "max" : [
                0.9999997019767761,
                1,
                0.9999994039535522
            ],
            "min" : [
                -0.9999990463256836,
                -1,
                -0.9999987483024597
            ],
            "type" : "VEC3"
        },
        {
            "bufferView" : 5,
            "componentType" : 5126,
            "count" : 1984,
            "type" : "VEC3"
        },
        {
            "bufferView" : 6,
            "componentType" : 5126,
            "count" : 1984,
            "type" : "VEC2"
        },
        {
            "bufferView" : 7,
            "componentType" : 5123,
            "count" : 2880,
            "type" : "SCALAR"
        },
        {
            "bufferView" : 8,
            "componentType" : 5126,
            "count" : 320,
            "max" : [
                1.0000104904174805,
                3.8005166053771973,
                0.9999998807907104
            ],
            "min" : [
                -0.9999998807907104,
                -8.67380428314209,
                -0.9999998807907104
            ],
            "type" : "VEC3"
        },
        {
            "bufferView" : 9,
            "componentType" : 5126,
            "count" : 320,
            "type" : "VEC3"
        },
        {
            "bufferView" : 10,
            "componentType" : 5126,
            "count" : 320,
            "type" : "VEC2"
        },
        {
            "bufferView" : 11,
            "componentType" : 5123,
            "count" : 564,
            "type" : "SCALAR"
        }
    ],
    "bufferViews" : [
        {
            "buffer" : 0,
            "byteLength" : 26112,
            "byteOffset" : 0
        },
        {
            "buffer" : 0,
            "byteLength" : 26112,
            "byteOffset" : 26112
        },
        {
            "buffer" : 0,
            "byteLength" : 17408,
            "byteOffset" : 52224
        },
        {
            "buffer" : 0,
            "byteLength" : 6528,
            "byteOffset" : 69632
        },
        {
            "buffer" : 0,
            "byteLength" : 23808,
            "byteOffset" : 76160
        },
        {
            "buffer" : 0,
            "byteLength" : 23808,
            "byteOffset" : 99968
        },
        {
            "buffer" : 0,
            "byteLength" : 15872,
            "byteOffset" : 123776
        },
        {
            "buffer" : 0,
            "byteLength" : 5760,
            "byteOffset" : 139648
        },
        {
            "buffer" : 0,
            "byteLength" : 3840,
            "byteOffset" : 145408
        },
        {
            "buffer" : 0,
            "byteLength" : 3840,
            "byteOffset" : 149248
        },
        {
            "buffer" : 0,
            "byteLength" : 2560,
            "byteOffset" : 153088
        },
        {
            "buffer" : 0,
            "byteLength" : 1128,
            "byteOffset" : 155648
        }
    ],
    "buffers" : [
        {
            "byteLength" : 156776,
            "uri" : "data:application/octet-stream;base64,"
        }
    ]
}
